<svg width="1119" height="1432" viewBox="0 0 1119 1432" fill="none" xmlns="http://www.w3.org/2000/svg">
<g filter="url(#filter0_d_1_4)">
<path d="M8.736 1400H-10.264V1419H8.736V1400ZM8.736 -9.53674e-05V-19.0001H-10.264V-9.53674e-05H8.736ZM846.736 188L832.418 200.49L832.451 200.528L832.485 200.566L846.736 188ZM846.736 1214L860.987 1226.57L861.021 1226.53L861.054 1226.49L846.736 1214ZM220.736 1204H201.736V1223H220.736V1204ZM688.736 1068L703.615 1079.82L703.657 1079.76L703.699 1079.71L688.736 1068ZM688.736 334L673.773 345.71L673.815 345.763L673.857 345.816L688.736 334ZM220.736 196V177H201.736V196H220.736ZM27.736 1400V-9.53674e-05H-10.264V1400H27.736ZM8.736 18.9999H344.736V-19.0001H8.736V18.9999ZM344.736 18.9999C566.626 18.9999 727.849 80.6184 832.418 200.49L861.054 175.51C746.956 44.7148 573.513 -19.0001 344.736 -19.0001V18.9999ZM832.485 200.566C937.901 320.124 991.736 485.81 991.736 700H1029.74C1029.74 479.523 974.237 303.876 860.987 175.434L832.485 200.566ZM991.736 700C991.736 914.177 937.906 1080.58 832.418 1201.51L861.054 1226.49C974.233 1096.75 1029.74 920.489 1029.74 700H991.736ZM832.485 1201.43C727.933 1320.01 566.687 1381 344.736 1381V1419C573.452 1419 746.873 1355.99 860.987 1226.57L832.485 1201.43ZM344.736 1381H8.736V1419H344.736V1381ZM220.736 1223H336.736V1185H220.736V1223ZM336.736 1223C502.727 1223 626.712 1176.66 703.615 1079.82L673.857 1056.18C606.76 1140.68 496.078 1185 336.736 1185V1223ZM703.699 1079.71C779.031 983.451 815.736 856.247 815.736 700H777.736C777.736 850.42 742.441 968.549 673.773 1056.29L703.699 1079.71ZM815.736 700C815.736 543.771 779.038 417.161 703.615 322.184L673.857 345.816C742.434 432.172 777.736 549.562 777.736 700H815.736ZM703.699 322.29C626.827 224.065 502.817 177 336.736 177V215C495.988 215 606.645 259.934 673.773 345.71L703.699 322.29ZM336.736 177H220.736V215H336.736V177ZM201.736 196V1204H239.736V196H201.736Z" fill="black"/>
</g>
<g filter="url(#filter1_d_1_4)">
<path d="M112.342 1400H93.3425V1419H112.342V1400ZM112.342 -9.53674e-05V-19.0001H93.3425V-9.53674e-05H112.342ZM950.342 188L936.025 200.49L936.058 200.528L936.091 200.566L950.342 188ZM950.342 1214L964.594 1226.57L964.627 1226.53L964.66 1226.49L950.342 1214ZM324.342 1204H305.342V1223H324.342V1204ZM792.342 1068L807.222 1079.82L807.264 1079.76L807.305 1079.71L792.342 1068ZM792.342 334L777.38 345.71L777.421 345.763L777.463 345.816L792.342 334ZM324.342 196V177H305.342V196H324.342ZM131.342 1400V-9.53674e-05H93.3425V1400H131.342ZM112.342 18.9999H448.342V-19.0001H112.342V18.9999ZM448.342 18.9999C670.232 18.9999 831.456 80.6184 936.025 200.49L964.66 175.51C850.562 44.7148 677.119 -19.0001 448.342 -19.0001V18.9999ZM936.091 200.566C1041.51 320.124 1095.34 485.81 1095.34 700H1133.34C1133.34 479.523 1077.84 303.876 964.594 175.434L936.091 200.566ZM1095.34 700C1095.34 914.177 1041.51 1080.58 936.025 1201.51L964.66 1226.49C1077.84 1096.75 1133.34 920.489 1133.34 700H1095.34ZM936.091 1201.43C831.539 1320.01 670.293 1381 448.342 1381V1419C677.059 1419 850.479 1355.99 964.594 1226.57L936.091 1201.43ZM448.342 1381H112.342V1419H448.342V1381ZM324.342 1223H440.342V1185H324.342V1223ZM440.342 1223C606.334 1223 730.319 1176.66 807.222 1079.82L777.463 1056.18C710.366 1140.68 599.685 1185 440.342 1185V1223ZM807.305 1079.71C882.638 983.451 919.343 856.247 919.343 700H881.343C881.343 850.42 846.047 968.549 777.38 1056.29L807.305 1079.71ZM919.343 700C919.343 543.771 882.645 417.161 807.222 322.184L777.463 345.816C846.04 432.172 881.343 549.562 881.343 700H919.343ZM807.305 322.29C730.434 224.065 606.424 177 440.342 177V215C599.595 215 710.251 259.934 777.38 345.71L807.305 322.29ZM440.342 177H324.342V215H440.342V177ZM305.342 196V1204H343.342V196H305.342Z" fill="black"/>
</g>
<defs>
<filter id="filter0_d_1_4" x="4.73599" y="-9.15527e-05" width="1010" height="1408" filterUnits="userSpaceOnUse" color-interpolation-filters="sRGB">
<feFlood flood-opacity="0" result="BackgroundImageFix"/>
<feColorMatrix in="SourceAlpha" type="matrix" values="0 0 0 0 0 0 0 0 0 0 0 0 0 0 0 0 0 0 127 0" result="hardAlpha"/>
<feOffset dy="4"/>
<feGaussianBlur stdDeviation="2"/>
<feComposite in2="hardAlpha" operator="out"/>
<feColorMatrix type="matrix" values="0 0 0 0 0 0 0 0 0 0 0 0 0 0 0 0 0 0 0.25 0"/>
<feBlend mode="normal" in2="BackgroundImageFix" result="effect1_dropShadow_1_4"/>
<feBlend mode="normal" in="SourceGraphic" in2="effect1_dropShadow_1_4" result="shape"/>
</filter>
<filter id="filter1_d_1_4" x="108.342" y="-9.15527e-05" width="1010" height="1408" filterUnits="userSpaceOnUse" color-interpolation-filters="sRGB">
<feFlood flood-opacity="0" result="BackgroundImageFix"/>
<feColorMatrix in="SourceAlpha" type="matrix" values="0 0 0 0 0 0 0 0 0 0 0 0 0 0 0 0 0 0 127 0" result="hardAlpha"/>
<feOffset dy="4"/>
<feGaussianBlur stdDeviation="2"/>
<feComposite in2="hardAlpha" operator="out"/>
<feColorMatrix type="matrix" values="0 0 0 0 0 0 0 0 0 0 0 0 0 0 0 0 0 0 0.25 0"/>
<feBlend mode="normal" in2="BackgroundImageFix" result="effect1_dropShadow_1_4"/>
<feBlend mode="normal" in="SourceGraphic" in2="effect1_dropShadow_1_4" result="shape"/>
</filter>
</defs>
</svg>
