<svg width="3904" height="4993" viewBox="0 0 3904 4993" fill="none" xmlns="http://www.w3.org/2000/svg">
<g filter="url(#filter0_d_8_17)">
<path d="M30.4451 4879.09H-35.7695V4945.3H30.4451V4879.09ZM30.4451 0.121103V-66.0934H-35.7695V0.121103H30.4451ZM2950.85 655.297L2900.96 698.824L2901.07 698.956L2901.19 699.088L2950.85 655.297ZM2950.85 4230.88L3000.52 4274.67L3000.64 4274.54L3000.75 4274.41L2950.85 4230.88ZM769.26 4196.03H703.045V4262.25H769.26V4196.03ZM2400.23 3722.08L2452.08 3763.25L2452.23 3763.07L2452.37 3762.88L2400.23 3722.08ZM2400.23 1164.1L2348.08 1204.91L2348.23 1205.1L2348.38 1205.28L2400.23 1164.1ZM769.26 683.176V616.962H703.045V683.176H769.26ZM96.6596 4879.09V0.121103H-35.7695V4879.09H96.6596ZM30.4451 66.3356H1201.4V-66.0934H30.4451V66.3356ZM1201.4 66.3356C1974.68 66.3356 2536.54 281.074 2900.96 698.824L3000.75 611.769C2603.12 155.952 1998.68 -66.0934 1201.4 -66.0934V66.3356ZM2901.19 699.088C3268.56 1115.74 3456.18 1693.16 3456.18 2439.6H3588.61C3588.61 1671.25 3395.19 1059.12 3000.52 611.505L2901.19 699.088ZM3456.18 2439.6C3456.18 3186.01 3268.58 3765.93 2900.96 4187.35L3000.75 4274.41C3395.18 3822.26 3588.61 3208 3588.61 2439.6H3456.18ZM2901.19 4187.09C2536.83 4600.33 1974.89 4812.87 1201.4 4812.87V4945.3C1998.47 4945.3 2602.83 4725.71 3000.52 4274.67L2901.19 4187.09ZM1201.4 4812.87H30.4451V4945.3H1201.4V4812.87ZM769.26 4262.25H1173.52V4129.82H769.26V4262.25ZM1173.52 4262.25C1751.99 4262.25 2184.08 4100.74 2452.08 3763.25L2348.38 3680.9C2114.54 3975.35 1728.82 4129.82 1173.52 4129.82V4262.25ZM2452.37 3762.88C2714.91 3427.42 2842.82 2984.12 2842.82 2439.6H2710.39C2710.39 2963.81 2587.39 3375.49 2348.08 3681.27L2452.37 3762.88ZM2842.82 2439.6C2842.82 1895.15 2714.93 1453.92 2452.08 1122.93L2348.38 1205.28C2587.36 1506.23 2710.39 1915.33 2710.39 2439.6H2842.82ZM2452.37 1123.29C2184.48 780.984 1752.31 616.962 1173.52 616.962V749.391C1728.51 749.391 2114.14 905.986 2348.08 1204.91L2452.37 1123.29ZM1173.52 616.962H769.26V749.391H1173.52V616.962ZM703.045 683.176V4196.03H835.474V683.176H703.045Z" fill="black"/>
</g>
<g filter="url(#filter1_d_8_17)">
<path d="M397.882 4879.09H331.668V4945.3H397.882V4879.09ZM397.882 0.121103V-66.0934H331.668V0.121103H397.882ZM3318.29 655.297L3268.39 698.824L3268.51 698.956L3268.63 699.088L3318.29 655.297ZM3318.29 4230.88L3367.96 4274.67L3368.07 4274.54L3368.19 4274.41L3318.29 4230.88ZM1136.7 4196.03H1070.48V4262.25H1136.7V4196.03ZM2767.67 3722.08L2819.52 3763.25L2819.66 3763.07L2819.81 3762.88L2767.67 3722.08ZM2767.67 1164.1L2715.52 1204.91L2715.67 1205.1L2715.81 1205.28L2767.67 1164.1ZM1136.7 683.176V616.962H1070.48V683.176H1136.7ZM464.097 4879.09V0.121103H331.668V4879.09H464.097ZM397.882 66.3356H1568.83V-66.0934H397.882V66.3356ZM1568.83 66.3356C2342.11 66.3356 2903.97 281.074 3268.39 698.824L3368.19 611.769C2970.56 155.952 2366.12 -66.0934 1568.83 -66.0934V66.3356ZM3268.63 699.088C3636 1115.74 3823.61 1693.16 3823.61 2439.6H3956.04C3956.04 1671.25 3762.63 1059.12 3367.96 611.505L3268.63 699.088ZM3823.61 2439.6C3823.61 3186.01 3636.02 3765.93 3268.39 4187.35L3368.19 4274.41C3762.61 3822.26 3956.04 3208 3956.04 2439.6H3823.61ZM3268.63 4187.09C2904.26 4600.33 2342.33 4812.87 1568.83 4812.87V4945.3C2365.9 4945.3 2970.27 4725.71 3367.96 4274.67L3268.63 4187.09ZM1568.83 4812.87H397.882V4945.3H1568.83V4812.87ZM1136.7 4262.25H1540.95V4129.82H1136.7V4262.25ZM1540.95 4262.25C2119.43 4262.25 2551.51 4100.74 2819.52 3763.25L2715.81 3680.9C2481.98 3975.35 2096.26 4129.82 1540.95 4129.82V4262.25ZM2819.81 3762.88C3082.34 3427.42 3210.26 2984.12 3210.26 2439.6H3077.83C3077.83 2963.81 2954.82 3375.49 2715.52 3681.27L2819.81 3762.88ZM3210.26 2439.6C3210.26 1895.15 3082.37 1453.92 2819.52 1122.93L2715.81 1205.28C2954.8 1506.23 3077.83 1915.33 3077.83 2439.6H3210.26ZM2819.81 1123.29C2551.91 780.984 2119.74 616.962 1540.95 616.962V749.391C2095.94 749.391 2481.58 905.986 2715.52 1204.91L2819.81 1123.29ZM1540.95 616.962H1136.7V749.391H1540.95V616.962ZM1070.48 683.176V4196.03H1202.91V683.176H1070.48Z" fill="black"/>
</g>
<defs>
<filter id="filter0_d_8_17" x="16.5049" y="0.121094" width="3519.83" height="4906.85" filterUnits="userSpaceOnUse" color-interpolation-filters="sRGB">
<feFlood flood-opacity="0" result="BackgroundImageFix"/>
<feColorMatrix in="SourceAlpha" type="matrix" values="0 0 0 0 0 0 0 0 0 0 0 0 0 0 0 0 0 0 127 0" result="hardAlpha"/>
<feOffset dy="13.9399"/>
<feGaussianBlur stdDeviation="6.96995"/>
<feComposite in2="hardAlpha" operator="out"/>
<feColorMatrix type="matrix" values="0 0 0 0 0 0 0 0 0 0 0 0 0 0 0 0 0 0 0.25 0"/>
<feBlend mode="normal" in2="BackgroundImageFix" result="effect1_dropShadow_8_17"/>
<feBlend mode="normal" in="SourceGraphic" in2="effect1_dropShadow_8_17" result="shape"/>
</filter>
<filter id="filter1_d_8_17" x="383.942" y="0.121094" width="3519.83" height="4906.85" filterUnits="userSpaceOnUse" color-interpolation-filters="sRGB">
<feFlood flood-opacity="0" result="BackgroundImageFix"/>
<feColorMatrix in="SourceAlpha" type="matrix" values="0 0 0 0 0 0 0 0 0 0 0 0 0 0 0 0 0 0 127 0" result="hardAlpha"/>
<feOffset dy="13.9399"/>
<feGaussianBlur stdDeviation="6.96995"/>
<feComposite in2="hardAlpha" operator="out"/>
<feColorMatrix type="matrix" values="0 0 0 0 0 0 0 0 0 0 0 0 0 0 0 0 0 0 0.25 0"/>
<feBlend mode="normal" in2="BackgroundImageFix" result="effect1_dropShadow_8_17"/>
<feBlend mode="normal" in="SourceGraphic" in2="effect1_dropShadow_8_17" result="shape"/>
</filter>
</defs>
</svg>
